<svg width="138" height="28" viewBox="0 0 138 28" fill="none" xmlns="http://www.w3.org/2000/svg">
<path fill-rule="evenodd" clip-rule="evenodd" d="M50.2589 6.00482L40.3125 20.986H46.348L47.8189 18.546H52.9719V20.986H58.1442V6.00482H50.2589ZM49.7542 15.336L52.9719 10.0282V15.336H49.7542ZM83.6717 20.986L82.2421 6.00482H74.4203L72.0861 14.2438L69.8365 6.00482H61.9282L60.4995 20.986H65.6939L66.4293 10.7348L69.2269 20.986H74.5049L77.49 10.6704L78.3523 20.986H83.6717ZM96.2061 5.9827H86.027V20.986H91.2848V17.0905H95.3841C99.7998 17.0905 102.049 14.7582 102.049 11.5049C102.049 8.20926 100.094 5.9827 96.2042 5.9827H96.2061ZM94.018 13.6891H91.2848V9.68594H94.3132C95.8264 9.68594 96.6676 10.4349 96.6676 11.6548C96.6676 12.9171 95.7427 13.6891 94.018 13.6891ZM112.796 21.4792C118.663 21.4792 122.384 17.8836 122.384 13.4103C122.384 8.85242 118.663 5.51355 112.817 5.51355C106.908 5.51355 103.207 8.85242 103.207 13.4103C103.207 17.8625 106.908 21.4792 112.796 21.4792ZM112.796 17.1347C110.378 17.1347 108.842 15.6157 108.842 13.4526C108.842 11.3136 110.378 9.85707 112.796 9.85707C115.193 9.85707 116.728 11.3136 116.728 13.4526C116.728 15.6157 115.193 17.1347 112.796 17.1347ZM129.492 16.6213V6.00482H124.235V20.986H137.756V16.6213H129.492Z" fill="#212338"/>
<path fill-rule="evenodd" clip-rule="evenodd" d="M26.3574 27.9395H31.719V0.0595093H26.3574V27.9395Z" fill="#212338"/>
<path fill-rule="evenodd" clip-rule="evenodd" d="M7.65072 27.94L26.3574 0.0595093L19.3286 0.0599976L0.62207 27.94H7.65072Z" fill="#212338"/>
</svg>
