<svg width="76" height="75" viewBox="0 0 76 75" fill="none" xmlns="http://www.w3.org/2000/svg">
<g clip-path="url(#clip0_2282_11736)">
<path d="M38.1196 -3.05176e-05C35.1995 -3.05176e-05 32.2635 0.351019 29.3913 1.03716C19.7135 3.3509 11.5117 9.31077 6.29378 17.8157C1.0759 26.3207 -0.527756 36.3336 1.79396 46.0035C4.1077 55.6813 10.0676 63.8831 18.5725 69.1009C27.0775 74.3188 37.0904 75.9145 46.7682 73.6008C58.0098 70.912 67.2089 63.3325 72.0199 52.809C72.2034 52.4021 72.2193 51.9553 72.0677 51.5405C71.9162 51.1256 71.605 50.7985 71.2061 50.615C70.3763 50.232 69.387 50.599 69.004 51.4367C64.6239 61.0268 56.2386 67.9281 45.9943 70.3775C37.1782 72.4918 28.0589 71.0317 20.3118 66.2766C12.5648 61.5215 7.13151 54.0537 5.02521 45.2375C2.91094 36.4214 4.37098 27.3021 9.12611 19.555C13.8733 11.8 21.3411 6.37471 30.1572 4.26044C38.9733 2.14616 48.0926 3.60621 55.8397 8.36134C63.5867 13.1165 69.02 20.5843 71.1263 29.4004C72.4108 34.7539 72.3709 40.3787 71.0226 45.6763C70.9109 46.1072 70.9747 46.554 71.2061 46.9369C71.4295 47.3199 71.7965 47.5912 72.2193 47.6949C73.1049 47.9183 74.0145 47.3837 74.2379 46.4981C75.7219 40.6819 75.7538 34.5066 74.3496 28.6345C72.0358 18.9567 66.076 10.7549 57.571 5.53698C51.6829 1.91479 44.9492 -3.05176e-05 38.1196 -3.05176e-05Z" fill="#212338"/>
<path d="M54.947 31.6263C54.947 31.6263 55.1465 28.3073 51.6998 28.3073C48.2532 28.3073 48.4526 31.4189 48.4526 31.4189C48.4526 31.4189 48.1574 34.7379 51.5961 34.7379C55.0348 34.7379 54.9391 31.6263 54.9391 31.6263H54.947ZM52.7849 31.4189C52.7849 31.4189 52.7849 33.1821 51.7078 33.1821C50.6307 33.1821 50.7265 31.4189 50.7265 31.4189C50.7265 31.4189 50.6307 29.8631 51.7078 29.8631C52.8886 29.8631 52.7849 31.4189 52.7849 31.4189Z" fill="#212338"/>
<path d="M27.517 34.6339C31.4503 34.4265 31.3546 31.2112 31.3546 31.2112H28.8972C28.8972 31.2112 28.8015 32.4558 27.4212 32.4558C25.5543 32.5596 25.1633 27.8922 27.4212 27.6848C28.8972 27.581 28.8972 28.9294 28.8972 28.9294H31.2588C31.2588 28.9294 31.3546 25.6104 27.3255 25.5067C21.4294 25.8178 22.1156 34.9451 27.5249 34.6339H27.517Z" fill="#212338"/>
<path d="M35.8702 33.9081V34.6501H37.9366V28.411H35.575V32.0412C35.4792 32.9747 33.9075 32.9747 34.0032 32.0412V28.411H31.6416V32.9747C32.4315 35.3602 34.9846 34.6342 35.8702 33.9081Z" fill="#212338"/>
<path d="M41.3759 34.7539C44.5194 34.8576 44.2242 32.3683 44.2242 32.3683C43.7295 29.9828 40.2908 30.8125 40.586 29.9828C40.586 29.6716 41.7668 29.153 41.9583 30.2939H44.0247C44.0247 30.2939 44.1205 28.3233 41.1764 28.3233C38.2324 28.3233 38.3282 30.2939 38.3282 30.2939C38.4239 32.6795 41.9663 31.8497 41.9663 32.7832C41.9663 32.7832 42.1658 33.4055 41.2802 33.4055C40.3946 33.4055 40.2988 32.472 40.2988 32.472H38.2324C38.2324 32.472 37.9372 34.6501 41.3759 34.7539Z" fill="#212338"/>
<path d="M63.4993 28.2594C62.2228 28.1557 61.3372 29.2966 61.3372 29.2966C61.3372 29.2966 60.8425 28.1557 59.3665 28.2594C58.5766 28.2594 58.1857 28.5706 57.4995 29.1929V28.3632H55.3374V34.5863H57.5953V31.0599C57.5953 31.0599 57.4995 30.0227 58.4809 30.0227C59.3665 30.0227 59.3665 30.9561 59.3665 30.9561V34.5863H61.5286V31.1636C61.5286 31.1636 61.5286 30.0227 62.4142 30.0227C63.2998 30.0227 63.2998 30.7487 63.2998 30.7487V34.5863H65.5577V30.0227C65.5577 30.0227 65.5577 28.2594 63.4913 28.2594H63.4993Z" fill="#212338"/>
<path d="M45.0136 32.9747C45.3088 35.6714 48.3566 34.323 48.3566 34.323L48.2608 32.7672C48.2608 32.7672 47.2795 32.8709 47.2795 32.1449V29.6556H48.3566V28.411H47.2795V26.5441H45.0216V28.411H44.3354V29.7594H45.0216V32.9747H45.0136Z" fill="#212338"/>
<path d="M25.7376 41.7988H29.0805V39.8281H25.8333V38.5835H29.8624V36.3016H23.376V45.3731H25.7376V41.7988Z" fill="#212338"/>
<path d="M32.6153 36.23H30.3574V45.3653H32.6153V36.23Z" fill="#212338"/>
<path d="M50.2149 43.4902C50.2149 43.4902 49.2336 43.594 49.2336 42.8679V40.3787H50.3107V39.134H49.2336V37.2671H46.9757V39.134H46.2896V40.4824H46.9757V43.6977C47.2709 46.3944 50.3186 45.046 50.3186 45.046L50.2229 43.4902H50.2149Z" fill="#212338"/>
<path d="M46.1865 42.6765C46.1865 42.6765 46.5775 38.9426 42.8436 38.9426C39.5964 38.9426 39.7001 41.743 39.7001 42.3653C39.7001 42.8839 40.091 45.4769 42.9473 45.4769C45.8993 45.3732 46.0908 43.4025 46.0908 43.4025H43.9286C43.9286 43.4025 43.7292 43.9211 42.9473 43.9211C41.7665 43.7137 42.0617 42.6765 42.0617 42.6765H46.1945H46.1865ZM42.8436 40.4984C44.1201 40.4984 43.9207 41.5355 43.9207 41.5355H42.0537C42.0537 41.5355 41.8542 40.4984 42.8436 40.4984Z" fill="#212338"/>
<path d="M36.0619 38.9426C32.9185 39.0463 32.9185 41.8467 32.9185 42.3653C32.9185 42.8839 33.4131 45.5806 36.2614 45.4769C39.1097 45.4769 39.3092 43.4025 39.3092 43.4025H37.2428C37.2428 43.4025 37.0513 44.0248 36.2614 43.9211C35.0806 43.7137 35.2801 42.7802 35.2801 42.7802H39.4129C39.4129 42.7802 39.9075 38.9426 36.0699 38.9426H36.0619ZM37.139 41.5355H35.3678C35.3678 41.5355 35.1684 40.6021 36.1577 40.6021C37.4342 40.6021 37.139 41.5355 37.139 41.5355Z" fill="#212338"/>
<path d="M18.0224 27.5653C17.8947 26.0016 17.3203 23.1373 14.3204 23.265C11.153 23.4405 10.9456 26.2648 10.778 27.5254C7.48293 29.7434 8.47225 32.6077 9.25413 33.4374C11.145 35.9107 13.4109 34.4826 14.4401 34.2592C16.0836 35.1687 18.6846 35.3921 19.9133 32.7353C21.11 30.1264 18.8841 28.2196 18.0224 27.5653ZM17.8947 31.8657C17.2405 33.3896 15.6289 32.1689 14.3922 31.7779C13.5704 31.7779 11.7992 33.4295 10.8498 31.9056C10.395 30.9083 10.7222 30.4296 12.7886 28.778C13.1157 27.8685 12.8285 25.6026 14.3523 25.5627C16.0836 25.475 15.6688 27.9084 16.0438 28.778C16.331 29.4722 18.5968 30.3418 17.8947 31.8657Z" fill="#212338"/>
<path d="M24.2055 48.9873C24.0938 48.9873 23.9981 49.0113 23.9183 49.0671C23.8624 49.107 23.8066 49.1549 23.7587 49.2187V49.0272H23.5273V51.0458H23.7667V50.3038C23.8225 50.3676 23.8704 50.4155 23.9103 50.4394C23.9821 50.4873 24.0699 50.5112 24.1816 50.5112C24.3172 50.5112 24.4369 50.4713 24.5406 50.3836C24.7002 50.2479 24.7879 50.0245 24.7879 49.7054C24.7879 49.474 24.7321 49.2905 24.6204 49.1629C24.5087 49.0352 24.3731 48.9714 24.2055 48.9714V48.9873ZM24.4289 50.1681C24.3571 50.2639 24.2614 50.3117 24.1497 50.3117C23.9821 50.3117 23.8704 50.2399 23.8066 50.0883C23.7747 50.0086 23.7587 49.9128 23.7587 49.8011C23.7587 49.6655 23.7747 49.5458 23.8066 49.4581C23.8704 49.2905 23.9821 49.2027 24.1497 49.2027C24.3172 49.2027 24.4289 49.2825 24.4927 49.4421C24.5246 49.5219 24.5406 49.6256 24.5406 49.7373C24.5406 49.9288 24.5007 50.0724 24.4289 50.1681Z" fill="#212338"/>
<path d="M26.2241 50.3117C26.2241 50.3117 26.1683 50.3117 26.1603 50.2878C26.1523 50.2718 26.1443 50.2559 26.1443 50.224V49.3862C26.1443 49.2506 26.0965 49.1469 25.9928 49.083C25.889 49.0192 25.7534 48.9873 25.5859 48.9873C25.4422 48.9873 25.3146 49.0192 25.2029 49.091C25.0912 49.1628 25.0354 49.2825 25.0354 49.466H25.2587C25.2667 49.3942 25.2907 49.3304 25.3146 49.2985C25.3625 49.2267 25.4582 49.1947 25.5779 49.1947C25.6816 49.1947 25.7694 49.2107 25.8252 49.2506C25.8811 49.2905 25.913 49.3463 25.913 49.4341C25.913 49.474 25.913 49.5059 25.897 49.5298C25.8811 49.5697 25.8412 49.5937 25.7853 49.6016L25.4024 49.6495C25.2667 49.6655 25.163 49.7133 25.0752 49.7851C24.9955 49.857 24.9556 49.9607 24.9556 50.0963C24.9556 50.216 24.9955 50.3197 25.0832 50.3995C25.163 50.4793 25.2747 50.5192 25.4024 50.5192C25.5141 50.5192 25.6098 50.4952 25.7055 50.4474C25.7933 50.3995 25.8651 50.3436 25.913 50.2798C25.921 50.3357 25.9369 50.3835 25.9529 50.4154C25.9928 50.4713 26.0486 50.5032 26.1284 50.5032C26.1603 50.5032 26.1922 50.5032 26.2082 50.5032C26.2241 50.5032 26.256 50.4952 26.2959 50.4793V50.2958C26.2959 50.2958 26.264 50.2958 26.256 50.2958C26.2401 50.2958 26.2321 50.2958 26.2241 50.2958V50.3117ZM25.905 49.9367C25.905 50.0883 25.8412 50.192 25.7055 50.2559C25.6258 50.2958 25.546 50.3117 25.4582 50.3117C25.3864 50.3117 25.3306 50.2878 25.2827 50.2479C25.2348 50.208 25.2029 50.1522 25.2029 50.0803C25.2029 49.9846 25.2428 49.9208 25.3146 49.8809C25.3545 49.8569 25.4263 49.841 25.5061 49.825L25.6497 49.8091C25.6976 49.8091 25.7375 49.7931 25.7853 49.7851C25.8332 49.7692 25.8651 49.7532 25.897 49.7373V49.9367H25.905Z" fill="#212338"/>
<path d="M27.1098 48.9873C27.014 48.9873 26.9343 49.0192 26.8624 49.091C26.7906 49.1628 26.7428 49.2187 26.7268 49.2665V49.0192H26.5034V50.4713H26.7428V49.6415C26.7428 49.5378 26.7747 49.4501 26.8385 49.3703C26.9023 49.2905 26.9981 49.2506 27.1178 49.2506C27.1337 49.2506 27.1417 49.2506 27.1576 49.2506C27.1656 49.2506 27.1816 49.2506 27.1975 49.2506V48.9953C27.1975 48.9953 27.1576 48.9953 27.1417 48.9953H27.1178L27.1098 48.9873Z" fill="#212338"/>
<path d="M27.6442 48.6203H27.4049V49.0272H27.2134V49.2266H27.4049V50.1841C27.4049 50.2798 27.4208 50.3516 27.4607 50.4074C27.5006 50.4633 27.5724 50.4952 27.6841 50.4952C27.716 50.4952 27.7479 50.4952 27.7798 50.4952C27.8118 50.4952 27.8357 50.4872 27.8676 50.4793V50.2878C27.8676 50.2878 27.8357 50.2878 27.8197 50.2878H27.7798C27.74 50.2878 27.708 50.2878 27.6841 50.2718C27.6522 50.2559 27.6362 50.2239 27.6362 50.1681V49.2187H27.8596V49.0192H27.6362V48.6123L27.6442 48.6203Z" fill="#212338"/>
<path d="M29.3601 48.9793C29.1527 48.9793 28.9931 49.0511 28.8734 49.1947C28.7538 49.3383 28.6899 49.5298 28.6899 49.7771C28.6899 50.0005 28.7458 50.184 28.8575 50.3197C28.9692 50.4553 29.1288 50.5191 29.3202 50.5191C29.5516 50.5191 29.7271 50.4393 29.8388 50.2877C29.9505 50.1362 30.0064 49.9447 30.0064 49.7053C30.0064 49.466 29.9426 49.2825 29.8229 49.1548C29.6952 49.0272 29.5436 48.9713 29.3601 48.9713V48.9793ZM29.6713 50.1282C29.6154 50.2479 29.5037 50.3117 29.3522 50.3117C29.2085 50.3117 29.1048 50.2638 29.041 50.1601C28.9772 50.0564 28.9453 49.9287 28.9453 49.7771C28.9453 49.6255 28.9772 49.4819 29.041 49.3623C29.1048 49.2506 29.2085 49.1947 29.3522 49.1947C29.5117 49.1947 29.6314 49.2585 29.6952 49.3942C29.7351 49.4819 29.759 49.5856 29.759 49.7213C29.759 49.8729 29.7271 50.0085 29.6713 50.1282Z" fill="#212338"/>
<path d="M30.6924 48.4528C30.5329 48.4528 30.4292 48.4927 30.3733 48.5804C30.3414 48.6283 30.3254 48.7001 30.3254 48.8038V49.0272H30.126V49.2187H30.3254V50.4713H30.5648V49.2187H30.8041V49.0272H30.5648C30.5648 48.8676 30.5648 48.7719 30.5887 48.732C30.6047 48.6921 30.6446 48.6762 30.7164 48.6762H30.8041V48.4607C30.8041 48.4607 30.7642 48.4607 30.7483 48.4607C30.7323 48.4607 30.7164 48.4607 30.7004 48.4607L30.6924 48.4528Z" fill="#212338"/>
<path d="M32.1284 49.6016H33.0778V49.2586H32.1284V48.8277H33.1656V48.4767H31.7295V50.4713H33.2135V50.1123H32.1284V49.6016Z" fill="#212338"/>
<path d="M33.8432 48.4767H33.4683V50.4713H33.8432V48.4767Z" fill="#212338"/>
<path d="M35.4875 49.5538C35.4716 49.4421 35.4317 49.3384 35.3758 49.2507C35.312 49.1549 35.2243 49.0751 35.1285 49.0352C35.0248 48.9874 34.9131 48.9634 34.7854 48.9634C34.57 48.9634 34.4025 49.0352 34.2668 49.1709C34.1312 49.3065 34.0674 49.506 34.0674 49.7613C34.0674 50.0325 34.1392 50.232 34.2908 50.3517C34.4344 50.4714 34.6099 50.5352 34.8014 50.5352C35.0328 50.5352 35.2163 50.4634 35.3439 50.3198C35.4237 50.232 35.4716 50.1442 35.4875 50.0565H35.1046C35.0806 50.0964 35.0567 50.1363 35.0248 50.1602C34.9689 50.2081 34.9051 50.224 34.8174 50.224C34.7376 50.224 34.6658 50.2081 34.6099 50.1682C34.5142 50.1123 34.4663 50.0086 34.4583 49.857H35.5115C35.5115 49.7294 35.5115 49.6336 35.4955 49.5618L35.4875 49.5538ZM34.4583 49.5937C34.4743 49.498 34.5062 49.4182 34.562 49.3624C34.6179 49.3065 34.6897 49.2746 34.7854 49.2746C34.8732 49.2746 34.953 49.2985 35.0088 49.3544C35.0727 49.4102 35.1046 49.482 35.1126 49.5858H34.4583V49.5937Z" fill="#212338"/>
<path d="M37.6176 49.139C37.5698 49.0751 37.5139 49.0352 37.4501 49.0033C37.3863 48.9794 37.3224 48.9634 37.2586 48.9634C37.1629 48.9634 37.0751 48.9874 36.9953 49.0273C36.9235 49.0672 36.8597 49.131 36.8118 49.2187C36.7799 49.1469 36.74 49.0911 36.6842 49.0432C36.6124 48.9954 36.5246 48.9714 36.4129 48.9714C36.2932 48.9714 36.1975 49.0033 36.1257 49.0592C36.0858 49.0911 36.0379 49.1469 35.9901 49.2267V49.0113H35.623V50.4873H36.006V49.6017C36.006 49.5219 36.014 49.4581 36.0379 49.4182C36.0778 49.3464 36.1496 49.3145 36.2533 49.3145C36.3491 49.3145 36.4129 49.3464 36.4368 49.4182C36.4528 49.4581 36.4608 49.5219 36.4608 49.6097V50.4873H36.8437V49.6097C36.8437 49.5459 36.8517 49.49 36.8757 49.4421C36.9155 49.3544 36.9874 49.3065 37.0911 49.3065C37.1788 49.3065 37.2427 49.3384 37.2746 49.4102C37.2905 49.4501 37.2985 49.49 37.2985 49.5459V50.4873H37.6895V49.5538C37.6895 49.4581 37.6895 49.3863 37.6815 49.3384C37.6655 49.2666 37.6416 49.2028 37.6017 49.1469L37.6176 49.139Z" fill="#212338"/>
<path d="M39.3328 49.5538C39.3168 49.4421 39.2769 49.3384 39.2211 49.2507C39.1572 49.1549 39.0695 49.0751 38.9737 49.0352C38.87 48.9874 38.7583 48.9634 38.6307 48.9634C38.4152 48.9634 38.2477 49.0352 38.1121 49.1709C37.9764 49.3065 37.9126 49.506 37.9126 49.7613C37.9126 50.0325 37.9844 50.232 38.136 50.3517C38.2796 50.4714 38.4551 50.5352 38.6466 50.5352C38.878 50.5352 39.0615 50.4634 39.1891 50.3198C39.2689 50.232 39.3168 50.1442 39.3328 50.0565H38.9498C38.9259 50.0964 38.9019 50.1363 38.87 50.1602C38.8142 50.2081 38.7503 50.224 38.6626 50.224C38.5828 50.224 38.511 50.2081 38.4551 50.1682C38.3594 50.1123 38.3115 50.0086 38.3035 49.857H39.3567C39.3567 49.7294 39.3567 49.6336 39.3407 49.5618L39.3328 49.5538ZM38.3035 49.5937C38.3195 49.498 38.3514 49.4182 38.4073 49.3624C38.4631 49.3065 38.5349 49.2746 38.6307 49.2746C38.7184 49.2746 38.7982 49.2985 38.854 49.3544C38.9179 49.4102 38.9498 49.482 38.9578 49.5858H38.3035V49.5937Z" fill="#212338"/>
<path d="M40.2905 48.9633C40.1708 48.9633 40.0751 48.9952 39.9953 49.0511C39.9554 49.083 39.9076 49.1388 39.8597 49.2186V49.0032H39.4927V50.4792H39.8677V49.6814C39.8677 49.5936 39.8836 49.5138 39.9076 49.458C39.9554 49.3463 40.0432 49.2904 40.1708 49.2904C40.2746 49.2904 40.3464 49.3303 40.3783 49.4021C40.4022 49.442 40.4102 49.5058 40.4102 49.5776V50.4712H40.8011V49.4739C40.8011 49.2904 40.7533 49.1548 40.6575 49.075C40.5618 48.9952 40.4421 48.9553 40.2905 48.9553V48.9633Z" fill="#212338"/>
<path d="M41.5422 48.5964H41.1672V49.0113H40.9678V49.2825H41.1672V50.1921C41.1672 50.2878 41.1912 50.3516 41.2311 50.3995C41.2949 50.4713 41.4146 50.5032 41.5981 50.4952H41.7736V50.2H41.7018C41.622 50.2 41.5821 50.2 41.5662 50.1841C41.5502 50.1681 41.5422 50.1282 41.5422 50.0724V49.2905H41.7736V49.0192H41.5422V48.6044V48.5964Z" fill="#212338"/>
<path d="M42.7241 50.4713H43.131V49.6336H44.0007V49.2905H43.131V48.8278H44.1203V48.4847H42.7241V50.4713Z" fill="#212338"/>
<path d="M44.7026 48.4767H44.3276V50.4713H44.7026V48.4767Z" fill="#212338"/>
<path d="M46.3376 49.5539C46.3217 49.4422 46.2818 49.3385 46.2259 49.2507C46.1621 49.155 46.0744 49.0752 45.9786 49.0353C45.8749 48.9874 45.7632 48.9635 45.6355 48.9635C45.4201 48.9635 45.2526 49.0353 45.1169 49.1709C44.9813 49.3066 44.9175 49.506 44.9175 49.7613C44.9175 50.0326 44.9893 50.2321 45.1409 50.3517C45.2845 50.4714 45.46 50.5352 45.6515 50.5352C45.8829 50.5352 46.0664 50.4634 46.194 50.3198C46.2738 50.2321 46.3217 50.1443 46.3376 50.0565H45.9547C45.9307 50.0964 45.9068 50.1363 45.8749 50.1603C45.819 50.2081 45.7552 50.2241 45.6675 50.2241C45.5877 50.2241 45.5159 50.2081 45.46 50.1682C45.3643 50.1124 45.3164 50.0087 45.3084 49.8571H46.3616C46.3616 49.7294 46.3616 49.6337 46.3456 49.5619L46.3376 49.5539ZM45.3084 49.5938C45.3244 49.4981 45.3563 49.4183 45.4121 49.3624C45.468 49.3066 45.5398 49.2747 45.6355 49.2747C45.7233 49.2747 45.7951 49.2986 45.8589 49.3544C45.9228 49.4103 45.9547 49.4821 45.9627 49.5858H45.3084V49.5938Z" fill="#212338"/>
<path d="M47.8137 49.5538C47.7978 49.4421 47.7579 49.3384 47.702 49.2507C47.6382 49.1549 47.5504 49.0751 47.4547 49.0352C47.351 48.9874 47.2393 48.9634 47.1116 48.9634C46.8962 48.9634 46.7286 49.0352 46.593 49.1709C46.4574 49.3065 46.3936 49.506 46.3936 49.7613C46.3936 50.0325 46.4654 50.232 46.6169 50.3517C46.7606 50.4714 46.9361 50.5352 47.1276 50.5352C47.3589 50.5352 47.5424 50.4634 47.6701 50.3198C47.7499 50.232 47.7978 50.1442 47.8137 50.0565H47.4307C47.4068 50.0964 47.3829 50.1363 47.351 50.1602C47.2951 50.2081 47.2233 50.224 47.1435 50.224C47.0637 50.224 46.9919 50.2081 46.9361 50.1682C46.8403 50.1123 46.7925 50.0086 46.7845 49.857H47.8376C47.8376 49.7294 47.8376 49.6336 47.8217 49.5618L47.8137 49.5538ZM46.7845 49.5937C46.8005 49.498 46.8324 49.4182 46.8882 49.3624C46.9441 49.3065 47.0159 49.2746 47.1116 49.2746C47.1994 49.2746 47.2792 49.2985 47.335 49.3544C47.3988 49.4102 47.4307 49.482 47.4387 49.5858H46.7845V49.5937Z" fill="#212338"/>
<path d="M48.3962 48.5964H48.0212V49.0113H47.8218V49.2825H48.0212V50.1921C48.0212 50.2878 48.0452 50.3516 48.0851 50.3995C48.1489 50.4713 48.2686 50.5032 48.4521 50.4952H48.6276V50.2H48.5558C48.476 50.2 48.4361 50.2 48.4202 50.1841C48.4042 50.1681 48.3962 50.1282 48.3962 50.0724V49.2905H48.6276V49.0192H48.3962V48.6044V48.5964Z" fill="#212338"/>
<path d="M50.5266 50.0482L50.1676 48.4765H49.5771V50.4711H49.9601V49.1228C49.9601 49.1228 49.9601 49.027 49.9601 48.9632C49.9601 48.8914 49.9601 48.8355 49.9601 48.8036L50.3271 50.4791H50.726L51.093 48.8036C51.093 48.8036 51.093 48.8994 51.093 48.9632C51.093 49.035 51.093 49.0908 51.093 49.1228V50.4711H51.476V48.4765H50.8856L50.5346 50.0482H50.5266Z" fill="#212338"/>
<path d="M52.9605 50.2718C52.9605 50.208 52.9605 50.1441 52.9605 50.1042V49.4261C52.9605 49.2506 52.8966 49.1309 52.777 49.0671C52.6573 49.0032 52.5137 48.9713 52.3541 48.9713C52.1068 48.9713 51.9392 49.0351 51.8355 49.1628C51.7717 49.2426 51.7398 49.3543 51.7318 49.4819H52.0988C52.1068 49.4261 52.1227 49.3782 52.1546 49.3463C52.1945 49.2984 52.2584 49.2825 52.3461 49.2825C52.4259 49.2825 52.4897 49.2904 52.5296 49.3144C52.5695 49.3383 52.5935 49.3782 52.5935 49.442C52.5935 49.4899 52.5695 49.5298 52.5137 49.5537C52.4818 49.5697 52.4339 49.5777 52.3621 49.5857L52.2344 49.6016C52.0908 49.6176 51.9791 49.6495 51.8993 49.6973C51.7637 49.7771 51.6919 49.9128 51.6919 50.0883C51.6919 50.2319 51.7318 50.3356 51.8195 50.4154C51.9073 50.4952 52.011 50.5271 52.1467 50.5271C52.2504 50.5271 52.3461 50.5032 52.4259 50.4553C52.4977 50.4154 52.5536 50.3675 52.6094 50.3117C52.6094 50.3436 52.6094 50.3755 52.6174 50.3994C52.6174 50.4234 52.6333 50.4553 52.6413 50.4792H53.0562V50.4234C53.0562 50.4234 53.0163 50.3994 53.0004 50.3755C52.9844 50.3596 52.9764 50.3197 52.9764 50.2718H52.9605ZM52.5775 49.9048C52.5775 50.0324 52.5376 50.1202 52.4658 50.1681C52.394 50.2159 52.3222 50.2399 52.2344 50.2399C52.1786 50.2399 52.1387 50.2239 52.0988 50.192C52.0589 50.1601 52.0429 50.1122 52.0429 50.0484C52.0429 49.9766 52.0749 49.9207 52.1307 49.8809C52.1626 49.8569 52.2264 49.841 52.3062 49.825L52.394 49.809C52.4339 49.8011 52.4738 49.7931 52.4977 49.7851C52.5216 49.7771 52.5456 49.7612 52.5695 49.7452V49.8888L52.5775 49.9048Z" fill="#212338"/>
<path d="M54.0444 48.9634C53.9247 48.9634 53.829 48.9953 53.7492 49.0512C53.7093 49.0831 53.6615 49.1389 53.6136 49.2187V49.0033H53.2466V50.4793H53.6216V49.6815C53.6216 49.5937 53.6375 49.5139 53.6615 49.4581C53.7093 49.3464 53.7971 49.2905 53.9247 49.2905C54.0285 49.2905 54.1003 49.3304 54.1322 49.4022C54.1481 49.4421 54.1641 49.506 54.1641 49.5778V50.4713H54.555V49.474C54.555 49.2905 54.5072 49.1549 54.4114 49.0751C54.3157 48.9953 54.196 48.9554 54.0444 48.9554V48.9634Z" fill="#212338"/>
<path d="M56.0474 50.2719C56.0474 50.208 56.0474 50.1442 56.0474 50.1043V49.4261C56.0474 49.2506 55.9835 49.1309 55.8639 49.0671C55.7362 49.0033 55.6006 48.9714 55.441 48.9714C55.1937 48.9714 55.0261 49.0352 54.9224 49.1629C54.8586 49.2426 54.8267 49.3543 54.8187 49.482H55.1857C55.1937 49.4261 55.2096 49.3783 55.2416 49.3464C55.2814 49.2985 55.3453 49.2825 55.433 49.2825C55.5128 49.2825 55.5767 49.2905 55.6165 49.3144C55.6564 49.3384 55.6804 49.3783 55.6804 49.4421C55.6804 49.49 55.6564 49.5299 55.6006 49.5538C55.5687 49.5698 55.5208 49.5777 55.449 49.5857L55.3213 49.6017C55.1777 49.6176 55.066 49.6495 54.9862 49.6974C54.8506 49.7772 54.7788 49.9128 54.7788 50.0883C54.7788 50.232 54.8187 50.3357 54.9065 50.4155C54.9942 50.4952 55.0979 50.5272 55.2336 50.5272C55.3373 50.5272 55.433 50.5032 55.5128 50.4554C55.5846 50.4155 55.6405 50.3676 55.6963 50.3117C55.6963 50.3437 55.6963 50.3756 55.7043 50.3995C55.7043 50.4234 55.7203 50.4554 55.7282 50.4793H56.1351V50.4234C56.1351 50.4234 56.0952 50.3995 56.0793 50.3756C56.0633 50.3596 56.0554 50.3197 56.0554 50.2719H56.0474ZM55.6644 49.9048C55.6644 50.0325 55.6245 50.1203 55.5527 50.1681C55.4809 50.216 55.4091 50.2399 55.3213 50.2399C55.2735 50.2399 55.2256 50.224 55.1857 50.1921C55.1458 50.1602 55.1299 50.1123 55.1299 50.0485C55.1299 49.9767 55.1618 49.9208 55.2176 49.8809C55.2495 49.857 55.3134 49.841 55.3931 49.8251L55.4809 49.8091C55.5208 49.8011 55.5607 49.7932 55.5846 49.7852C55.6086 49.7772 55.6325 49.7612 55.6564 49.7453V49.8889L55.6644 49.9048Z" fill="#212338"/>
<path d="M57.2768 49.2108C57.2209 49.1071 57.1491 49.0353 57.0534 48.9954C56.9975 48.9715 56.9337 48.9635 56.8619 48.9635C56.6624 48.9635 56.5108 49.0353 56.4071 49.1869C56.3034 49.3385 56.2476 49.522 56.2476 49.7374C56.2476 49.9528 56.3034 50.1443 56.4151 50.2799C56.5268 50.4156 56.6704 50.4794 56.8619 50.4794C56.9816 50.4794 57.0773 50.4475 57.1571 50.3916C57.197 50.3597 57.2369 50.3119 57.2768 50.248V50.3438C57.2768 50.4874 57.2608 50.5831 57.2289 50.6469C57.181 50.7427 57.0933 50.7826 56.9576 50.7826C56.8619 50.7826 56.7901 50.7666 56.7502 50.7267C56.7263 50.7108 56.7103 50.6709 56.6943 50.631H56.2795C56.2954 50.7746 56.3593 50.8863 56.471 50.9661C56.5906 51.0379 56.7342 51.0778 56.9257 51.0778C57.2289 51.0778 57.4363 50.998 57.548 50.8304C57.6119 50.7347 57.6438 50.5911 57.6438 50.3996V49.0034H57.2768V49.2188V49.2108ZM57.181 50.0565C57.1172 50.1284 57.0454 50.1603 56.9576 50.1603C56.822 50.1603 56.7342 50.0964 56.6864 49.9768C56.6545 49.9129 56.6465 49.8331 56.6465 49.7454C56.6465 49.6496 56.6624 49.5619 56.6864 49.4981C56.7342 49.3704 56.83 49.3066 56.9576 49.3066C57.0534 49.3066 57.1332 49.3465 57.189 49.4183C57.2449 49.4901 57.2768 49.6018 57.2768 49.7374C57.2768 49.889 57.2449 49.9927 57.189 50.0645L57.181 50.0565Z" fill="#212338"/>
<path d="M59.2629 49.5539C59.247 49.4422 59.2071 49.3385 59.1512 49.2507C59.0874 49.155 58.9996 49.0752 58.9039 49.0353C58.8002 48.9874 58.6885 48.9635 58.5608 48.9635C58.3454 48.9635 58.1779 49.0353 58.0422 49.1709C57.9066 49.3066 57.8428 49.506 57.8428 49.7613C57.8428 50.0326 57.9146 50.2321 58.0662 50.3517C58.2098 50.4714 58.3853 50.5352 58.5768 50.5352C58.8082 50.5352 58.9917 50.4634 59.1193 50.3198C59.1991 50.2321 59.247 50.1443 59.2629 50.0565H58.88C58.856 50.0964 58.8321 50.1363 58.8002 50.1603C58.7443 50.2081 58.6725 50.2241 58.5927 50.2241C58.513 50.2241 58.4412 50.2081 58.3853 50.1682C58.2896 50.1124 58.2417 50.0087 58.2337 49.8571H59.2869C59.2869 49.7294 59.2869 49.6337 59.2709 49.5619L59.2629 49.5539ZM58.2337 49.5938C58.2497 49.4981 58.2816 49.4183 58.3374 49.3624C58.3933 49.3066 58.4651 49.2747 58.5608 49.2747C58.6486 49.2747 58.7284 49.2986 58.7842 49.3544C58.8481 49.4103 58.88 49.4821 58.8879 49.5858H58.2337V49.5938Z" fill="#212338"/>
<path d="M61.4013 49.139C61.3535 49.0752 61.2976 49.0353 61.2338 49.0034C61.17 48.9795 61.1061 48.9635 61.0423 48.9635C60.9466 48.9635 60.8588 48.9874 60.779 49.0273C60.7072 49.0672 60.6434 49.131 60.5955 49.2188C60.5636 49.147 60.5237 49.0912 60.4679 49.0433C60.3961 48.9954 60.3083 48.9715 60.1966 48.9715C60.0769 48.9715 59.9892 49.0034 59.9094 49.0592C59.8695 49.0912 59.8216 49.147 59.7737 49.2268V49.0114H59.4067V50.4874H59.7897V49.6018C59.7897 49.522 59.7977 49.4582 59.8216 49.4183C59.8615 49.3465 59.9333 49.3146 60.037 49.3146C60.1328 49.3146 60.1886 49.3465 60.2205 49.4183C60.2365 49.4582 60.2445 49.522 60.2445 49.6098V50.4874H60.6274V49.6098C60.6274 49.5459 60.6354 49.4901 60.6593 49.4422C60.6992 49.3544 60.771 49.3066 60.8748 49.3066C60.9625 49.3066 61.0264 49.3385 61.0583 49.4103C61.0742 49.4502 61.0822 49.4901 61.0822 49.5459V50.4874H61.4731V49.5539C61.4731 49.4582 61.4731 49.3864 61.4652 49.3385C61.4492 49.2667 61.4253 49.2029 61.3854 49.147L61.4013 49.139Z" fill="#212338"/>
<path d="M63.1081 49.5538C63.0922 49.4421 63.0523 49.3384 62.9964 49.2507C62.9326 49.1549 62.8449 49.0751 62.7491 49.0352C62.6454 48.9874 62.5337 48.9634 62.406 48.9634C62.1906 48.9634 62.0231 49.0352 61.8874 49.1709C61.7518 49.3065 61.688 49.506 61.688 49.7613C61.688 50.0325 61.7598 50.232 61.9114 50.3517C62.063 50.4714 62.2305 50.5352 62.422 50.5352C62.6534 50.5352 62.8369 50.4634 62.9645 50.3198C63.0443 50.232 63.0922 50.1442 63.1081 50.0565H62.7252C62.7012 50.0964 62.6773 50.1363 62.6454 50.1602C62.5895 50.2081 62.5257 50.224 62.438 50.224C62.3582 50.224 62.2864 50.2081 62.2305 50.1682C62.1348 50.1123 62.0869 50.0086 62.0789 49.857H63.1321C63.1321 49.7294 63.1321 49.6336 63.1161 49.5618L63.1081 49.5538ZM62.0789 49.5937C62.0949 49.498 62.1268 49.4182 62.1826 49.3624C62.2385 49.3065 62.3103 49.2746 62.406 49.2746C62.4938 49.2746 62.5736 49.2985 62.6294 49.3544C62.6853 49.4102 62.7252 49.482 62.7332 49.5858H62.0789V49.5937Z" fill="#212338"/>
<path d="M64.0737 48.9634C63.954 48.9634 63.8583 48.9953 63.7785 49.0512C63.7386 49.0831 63.6908 49.1389 63.6429 49.2187V49.0033H63.2759V50.4793H63.6509V49.6815C63.6509 49.5937 63.6668 49.5139 63.6908 49.4581C63.7386 49.3464 63.8264 49.2905 63.954 49.2905C64.0578 49.2905 64.1296 49.3304 64.1615 49.4022C64.1854 49.4421 64.1934 49.506 64.1934 49.5778V50.4713H64.5843V49.474C64.5843 49.2905 64.5365 49.1549 64.4407 49.0751C64.345 48.9953 64.2253 48.9554 64.0737 48.9554V48.9634Z" fill="#212338"/>
<path d="M65.3259 48.5964H64.9509V49.0113H64.7515V49.2825H64.9509V50.1921C64.9509 50.2878 64.9749 50.3516 65.0148 50.3995C65.0786 50.4713 65.2062 50.5032 65.3818 50.4952H65.5573V50.2H65.4855C65.4057 50.2 65.3658 50.2 65.3498 50.1841C65.3339 50.1681 65.3259 50.1282 65.3259 50.0724V49.2905H65.5573V49.0192H65.3259V48.6044V48.5964Z" fill="#212338"/>
<path d="M11.4323 39.4133H12.3498V40.5143L12.8923 41.0887L12.3498 41.6233V42.9397L12.9003 43.5222L12.262 44.2322L13.0918 45.1498L12.3817 45.8997V49.0592L14.5199 51.3649H14.7912L16.6901 49.3544V36.5012H11.4243V39.3973L11.4323 39.4133ZM14.3364 38.1527H15.5412V48.9634L14.3364 50.1761V38.1527Z" fill="#212338"/>
</g>
<defs>
<clipPath id="clip0_2282_11736">
<rect width="74.63" height="74.63" fill="white" transform="translate(0.755859)"/>
</clipPath>
</defs>
</svg>
